 <svg version="1.0" xmlns="http://www.w3.org/2000/svg"  width="271.000000pt" height="300.000000pt" viewBox="0 0 271.000000 300.000000"  preserveAspectRatio="xMidYMid meet">  
    <g transform="translate(0.000000,300.000000) scale(0.100000,-0.100000)" id="primaryColour" stroke="none"> 
        <path d="M1185 2724 c-257 -45 -435 -92 -491 -129 -33 -21 -31 -57 4 -77 16 -10 79 -31 141 -48 253 -69 461 -171 726 -357 56 -39 167 -131 188 -155 9 -11 17 -31 17 -44 0 -56 -86 -184 -229 -343 -60 -66 -412 -419 -465 -466 -6 -6 -67 -62 -136 -125 -69 -63 -145 -133 -170 -155 -24 -22 -69 -63 -100 -90 -30 -28 -75 -68 -100 -90 -74 -64 -261 -237 -308 -285 -110 -113 -110 -175 2 -174 58 0 152 32 526 176 365 142 597 217 870 285 157 38 302 40 373 4 82 -42 127 -124 127 -230 0 -73 -15 -123 -46 -161 -76 -90 75 -76 154 14 45 52 107 187 132 289 39 160 26 391 -31 547 -40 108 -56 107 -152 -12 -85 -107 -144 -163 -221 -213 -85 -54 -353 -157 -601 -230 -199 -58 -372 -72 -434 -34 -29 17 -33 24 -27 50 11 57 128 210 340 444 110 121 119 132 327 400 418 537 748 994 818 1132 69 137 31 136 -126 -4 -121 -109 -150 -133 -255 -210 -172 -127 -245 -169 -330 -193 -134 -36 -284 36 -344 165 -33 70 -32 133 5 204 43 85 45 97 22 120 -26 26 -32 25 -206 -5z"/> 
        <path d="M1575 2741 c-68 -17 -130 -64 -161 -122 -25 -45 -25 -170 -1 -215 20 -39 80 -92 123 -110 47 -20 125 -17 176 5 124 54 176 204 111 322 -31 58 -71 91 -136 113 -51 17 -65 18 -112 7z"/> 
        <path d="M1796 630 c-92 -28 -156 -118 -156 -221 0 -101 50 -177 143 -217 44 -19 142 -15 186 7 46 24 108 91 118 128 24 87 -2 197 -59 250 -56 53 -156 75 -232 53z"/> 
    </g> 
 </svg> 