 <svg  version="1.0" xmlns="http://www.w3.org/2000/svg"  width="260.000000pt" height="260.000000pt" viewBox="0 0 260.000000 260.000000"  preserveAspectRatio="xMidYMid meet">  <g transform="translate(0.000000,260.000000) scale(0.100000,-0.100000)" fill="#450e59" stroke="none"> <path d="M643 2235 c-93 -26 -155 -76 -209 -170 -26 -46 -29 -59 -29 -145 0 -78 4 -103 23 -141 35 -72 85 -122 157 -159 127 -65 275 -41 377 62 71 70 93 126 93 233 0 71 -5 100 -22 137 -66 144 -239 226 -390 183z"/> <path d="M1899 2235 c-140 -45 -239 -177 -239 -320 0 -62 -42 -170 -82 -212 -46 -49 -121 -83 -183 -83 -211 -1 -347 -124 -366 -330 -12 -134 -56 -214 -145 -266 -33 -20 -71 -29 -153 -39 -126 -16 -168 -34 -234 -99 -72 -73 -92 -123 -92 -236 0 -87 3 -100 30 -148 89 -162 279 -226 435 -148 116 58 174 144 190 284 11 95 22 132 55 188 48 82 104 111 241 125 112 10 186 42 243 104 57 62 81 115 91 204 14 127 27 164 82 233 42 53 105 80 209 89 144 12 255 78 309 186 33 64 40 189 15 263 -22 66 -100 151 -169 185 -67 33 -171 41 -237 20z"/> <path d="M1875 963 c-86 -35 -149 -96 -187 -180 -34 -72 -32 -189 3 -264 36 -76 86 -129 156 -165 51 -26 68 -29 148 -29 81 0 95 3 144 30 121 67 184 169 183 302 0 121 -69 235 -176 291 -66 33 -208 42 -271 15z"/> </g> </svg> 