 <svg version="1.0" xmlns="http://www.w3.org/2000/svg"  width="263.000000pt" height="300.000000pt" viewBox="0 0 263.000000 300.000000"  preserveAspectRatio="xMidYMid meet">  
    <g transform="translate(0.000000,300.000000) scale(0.100000,-0.100000)" id="primaryColour" stroke="none" fill="rgb(57, 6, 89)"> 
        <path  d="M1999 2862 c-20 -10 -125 -101 -234 -203 -504 -469 -522 -483 -608 -495 -91 -13 -129 8 -358 202 -323 273 -424 356 -450 370 -38 19 -113 18 -134 -2 -32 -32 -47 -76 -41 -116 9 -53 34 -101 114 -216 87 -124 152 -217 235 -338 306 -447 350 -500 432 -523 47 -13 102 3 142 42 29 27 138 224 366 657 68 128 104 176 155 201 53 26 93 20 150 -21 45 -32 72 -75 72 -112 -1 -52 -51 -120 -341 -457 -325 -378 -832 -1002 -1075 -1323 -142 -187 -152 -325 -28 -380 53 -23 112 -19 156 10 15 10 74 61 130 113 57 53 209 194 338 314 254 235 297 265 385 265 70 0 135 -34 237 -121 46 -41 143 -123 214 -183 71 -59 140 -118 154 -130 153 -132 193 -156 255 -156 27 0 44 8 66 29 25 26 29 37 29 86 0 36 -7 70 -20 94 -10 21 -108 166 -216 322 -109 156 -220 318 -249 359 -173 254 -213 300 -283 321 -23 6 -56 9 -77 5 -70 -13 -106 -66 -299 -431 -214 -408 -236 -442 -296 -473 -52 -26 -83 -23 -141 14 -79 49 -99 115 -60 192 11 20 162 204 336 407 486 566 1095 1332 1142 1433 47 104 37 187 -29 235 -39 29 -123 34 -169 9z"/> 
        <path fill="rgb(0, 0, 0)" d="M1609 2397 c-98 -66 -53 -227 62 -227 102 0 160 87 119 177 -32 72 -115 95 -181 50z"/> 
        <path fill="rgb(0, 0, 0)" d="M802 830 c-68 -31 -92 -111 -52 -175 45 -73 135 -82 197 -20 29 29 33 40 33 83 0 62 -32 106 -88 122 -46 12 -39 13 -90 -10z"/> 
    </g> 
 </svg> 